# xmcd
#
# Track frame offsets: 
#        150
#        17540
#        31346
#        47200
#        65280
#        84464
#        102411
#        119284
#        136562
#        148103
#        162578
#
# Disc length: 2409 seconds
#
# Revision: 0
# Processed by: cddbd v1.5.2PL0 Copyright (c) Steve Scherf et al.
# Submitted via: ExactAudioCopy v1.0b3
#
DISCID=8e09670b
DTITLE=Various Artist - Icon - Country Icons
DYEAR=2013
DGENRE=Country
TTITLE0=Darius Rucker - Alright
TTITLE1=Dierks Bentley - Sideways
TTITLE2=Garry Allan - Nothing But The Radio
TTITLE3=Trace Adkins - Honky Tonk Badonkadonk
TTITLE4=Lee Ann Womack - A Litte Past Little Rock
TTITLE5=Chris Cagle - Chicks Dig It
TTITLE6=Vince Gill - Don't Let Our Love Start Slippin' Away
TTITLE7=The Mavericks - What A Crying Shame
TTITLE8=Chris LeDoux with Garth Brooks - Whatcha Gonna Do With A Cowbo
TTITLE8=y
TTITLE9=Deana Carter - Did I Shave My Legs For This
TTITLE10=Chris Cagle - I Breathe In, I Breathe Out
EXTD=
EXTT0=
EXTT1=
EXTT2=
EXTT3=
EXTT4=
EXTT5=
EXTT6=
EXTT7=
EXTT8=
EXTT9=
EXTT10=
PLAYORDER=
